<?xml version="1.0" encoding="utf-8"?>
<!-- Generator: Adobe Illustrator 22.0.1, SVG Export Plug-In . SVG Version: 6.00 Build 0)  -->
<svg version="1.1" id="Layer_1" xmlns="http://www.w3.org/2000/svg" xmlns:xlink="http://www.w3.org/1999/xlink" x="0px" y="0px"
	 viewBox="0 0 512 512" style="enable-background:new 0 0 512 512;" xml:space="preserve">
<style type="text/css">
	.st0{fill:#8A0303;}
</style>
<path class="st0" d="M183.5,0C82.3,0,0,82.3,0,183.5c0,101.2,82.3,183.5,183.5,183.5c101.2,0,183.5-82.3,183.5-183.5
	C366.9,82.3,284.6,0,183.5,0L183.5,0z M183.5,235.7c-28.8,0-52.3-23.4-52.3-52.3s23.4-52.3,52.3-52.3s52.3,23.4,52.3,52.3
	S212.3,235.7,183.5,235.7z"/>
<path class="st0" d="M183.5,163.2c-11.2,0-20.3,9.1-20.3,20.3c0,11.2,9.1,20.3,20.3,20.3c11.2,0,20.3-9.1,20.3-20.3
	C203.7,172.3,194.6,163.2,183.5,163.2z"/>
<path class="st0" d="M72.5,368.3v53.1h221.9v-53C226.6,409.1,140.4,409.2,72.5,368.3z"/>
<path class="st0" d="M0,453.3h366.9V512H0V453.3z"/>
<path class="st0" d="M459.7,268v92.6c0,39.9-25.4,74-60.8,87.1v33.5c53.4-14.2,92.8-62.9,92.8-120.6V268
	C481.3,270.5,470.2,270.5,459.7,268L459.7,268z"/>
<path class="st0" d="M475.7,165.3c-20,0-36.3,16.2-36.3,36.3c0,20.2,16.4,36.3,36.3,36.3c20.1,0,36.3-16.3,36.3-36.3
	C512,181.6,495.8,165.3,475.7,165.3z"/>
</svg>
