<?xml version="1.0" encoding="utf-8"?>
<!-- Generator: Adobe Illustrator 22.0.1, SVG Export Plug-In . SVG Version: 6.00 Build 0)  -->
<svg version="1.1" id="Capa_1" xmlns="http://www.w3.org/2000/svg" xmlns:xlink="http://www.w3.org/1999/xlink" x="0px" y="0px"
	 viewBox="0 0 512 512" style="enable-background:new 0 0 512 512;" xml:space="preserve">
<style type="text/css">
	.st0{fill:#8A0303;}
</style>
<g>
	<g>
		<g>
			<path class="st0" d="M354.5,371.8l2.6-2.3c7.8-6.9,10.3-22.5,6.1-38.1l-61.8-195.1c-4.7,4.8-10.2,8.7-16.2,11.8L309,225v0.1
				L354.5,371.8z"/>
			<circle class="st0" cx="256" cy="91.4" r="45.7"/>
			<path class="st0" d="M265.1,28.2V0h-18.3v28.2C252.9,27.2,259.1,27.2,265.1,28.2z"/>
			<polygon class="st0" points="211.9,256 299.5,256 293.8,237.7 217.6,237.7 			"/>
			<path class="st0" d="M484.6,384h-18.3c-5,0-9.1-4.1-9.1-9.1V164.6H329.5l51.3,161.9c6.2,23,1.6,45.2-11.5,56.9l-8.5,7.6l4.7,18.3
				c0.6,2.4,0.3,4.8-1,6.9c-1.2,2.1-3.2,3.6-5.6,4.2c-0.7,0.2-1.5,0.3-2.3,0.3c-4.2,0-7.8-2.8-8.9-6.9l-5.3-20.5
				c-0.5-0.7-0.9-1.5-1.2-2.4l-36.1-116.5h-98.9l-35.9,116.1l-6.1,23.3c-1.3,4.8-6.3,7.6-11.1,6.4c-4.8-1.2-7.8-6.1-6.6-10.9
				l4.6-17.9l-9-8c-13.2-11.7-17.7-33.8-11.6-56.5l51.3-162.2H27.4C12.3,164.6,0,176.9,0,192v256.2c7.9-6.1,17.5-9.3,27.4-9.4h457.1
				c15.1,0,27.4-12.3,27.4-27.4S499.7,384,484.6,384z"/>
			<path class="st0" d="M0,484.6C0,499.7,12.3,512,27.4,512h18.3v-54.9H27.4C12.3,457.1,0,469.4,0,484.6z"/>
			<path class="st0" d="M256,155.4c-4.2,0-8.4-0.4-12.6-1.3l-20.2,65.3h64.9l-20.2-65.2C264,155,260,155.4,256,155.4z"/>
			<path class="st0" d="M484.6,91.4h-9.1v274.3h9.1c9.9,0,19.6,3.3,27.4,9.4V118.9C512,103.7,499.7,91.4,484.6,91.4z"/>
			<path class="st0" d="M154.4,369.6l2.6,2.3L226.2,148c-6-3.1-11.4-7.2-16.1-12.1l-62,196C144.1,347,146.6,362.7,154.4,369.6z"/>
		</g>
	</g>
</g>
</svg>
