<?xml version="1.0" encoding="utf-8"?>
<!-- Generator: Adobe Illustrator 22.0.1, SVG Export Plug-In . SVG Version: 6.00 Build 0)  -->
<svg version="1.1" id="Capa_1" xmlns="http://www.w3.org/2000/svg" xmlns:xlink="http://www.w3.org/1999/xlink" x="0px" y="0px"
	 viewBox="0 0 512 512" style="enable-background:new 0 0 512 512;" xml:space="preserve">
<style type="text/css">
	.st0{fill:#FFFFFF;}
</style>
<g>
	<path class="st0" d="M467,0H45C20.2,0,0,20.2,0,45v322c0,24.8,20.2,45,45,45h142.7l-6.8,33.8c-4.2,21-22.8,36.2-44.1,36.2H96
		c-8.3,0-15,6.7-15,15s6.7,15,15,15h320c8.3,0,15-6.7,15-15s-6.7-15-15-15h-40.8c-21.4,0-39.9-15.2-44.1-36.2l-6.8-33.8H467
		c24.8,0,45-20.2,45-45V45C512,20.2,491.8,0,467,0L467,0z M301.6,451.7c2.3,11.3,7,21.5,13.6,30.3H196.8c6.6-8.7,11.3-19,13.6-30.3
		l7.9-39.7h75.4L301.6,451.7z M482,367c0,8.3-6.7,15-15,15H45c-8.3,0-15-6.7-15-15V45c0-8.3,6.7-15,15-15h422c8.3,0,15,6.7,15,15
		V367z"/>
	<path class="st0" d="M186,250h140c8.3,0,15-6.7,15-15v-10c0-31.8-17.5-59.5-43.4-74.1c8.3-9.6,13.4-22.2,13.4-35.9
		c0-30.3-24.7-55-55-55s-55,24.7-55,55c0,13.7,5.1,26.3,13.4,35.9C188.5,165.5,171,193.2,171,225v10C171,243.3,177.7,250,186,250z
		 M231,115c0-13.8,11.2-25,25-25s25,11.2,25,25s-11.2,25-25,25S231,128.8,231,115z M256,170c28.6,0,52.2,22,54.8,50H201.2
		C203.8,192,227.4,170,256,170z"/>
	<path class="st0" d="M436,302H161v-5c0-8.3-6.7-15-15-15s-15,6.7-15,15v5H76c-8.3,0-15,6.7-15,15s6.7,15,15,15h55v5
		c0,8.3,6.7,15,15,15s15-6.7,15-15v-5h275c8.3,0,15-6.7,15-15S444.3,302,436,302z"/>
</g>
</svg>
