<?xml version="1.0" encoding="utf-8"?>
<!-- Generator: Adobe Illustrator 22.0.1, SVG Export Plug-In . SVG Version: 6.00 Build 0)  -->
<svg version="1.1" id="Layer_1" xmlns="http://www.w3.org/2000/svg" xmlns:xlink="http://www.w3.org/1999/xlink" x="0px" y="0px"
	 viewBox="0 0 512 512" style="enable-background:new 0 0 512 512;" xml:space="preserve">
<style type="text/css">
	.st0{fill:#FFFFFF;}
</style>
<g>
	<path class="st0" d="M472.2,53.3L322.5,9.5C279-3.2,233-3.2,189.5,9.5L39.8,53.3c-7,2.1-11.5,8.9-10.7,16.2l26.9,228
		c6.1,52.2,34.2,99.6,77,130.1l114.3,81.5c2.6,1.9,5.7,2.8,8.7,2.8s6.1-0.9,8.7-2.8l114.3-81.5c42.8-30.5,70.9-78,77-130.1l26.9-228
		C483.8,62.2,479.3,55.4,472.2,53.3z M418.4,327.7H271v-30h154.8C424.3,308,421.8,318.1,418.4,327.7z M436.4,207.7H271v-30h169
		L436.4,207.7z M271,267.7v-30h161.9l-3.5,30H271z M451.6,78.6l-8.1,69.2H271V30.6c14.5,1.1,28.9,3.7,43.1,7.8L451.6,78.6z
		 M85.7,294L60.4,78.6l137.6-40.2c14.1-4.1,28.6-6.7,43.1-7.8v437.3l-90.6-64.6C114.4,377.7,90.9,337.8,85.7,294z M361.6,403.3
		L271,467.9V357.7h133.1C393.2,375.4,378.9,391,361.6,403.3z"/>
</g>
</svg>
